<?xml version="1.0" encoding="UTF-8" standalone="no"?>
<!-- Created with Inkscape (http://www.inkscape.org/) -->

<svg
   xmlns:dc="http://purl.org/dc/elements/1.1/"
   xmlns:cc="http://creativecommons.org/ns#"
   xmlns:rdf="http://www.w3.org/1999/02/22-rdf-syntax-ns#"
   xmlns:svg="http://www.w3.org/2000/svg"
   xmlns="http://www.w3.org/2000/svg"
   xmlns:sodipodi="http://sodipodi.sourceforge.net/DTD/sodipodi-0.dtd"
   xmlns:inkscape="http://www.inkscape.org/namespaces/inkscape"
   width="210mm"
   height="297mm"
   viewBox="0 0 210 297"
   version="1.1"
   id="svg4640"
   inkscape:version="0.92.5 (2060ec1f9f, 2020-04-08)"
   sodipodi:docname="circleOvulation.svg">
  <defs
     id="defs4634">
    <inkscape:perspective
       sodipodi:type="inkscape:persp3d"
       inkscape:vp_x="0 : 148.5 : 1"
       inkscape:vp_y="0 : 1000 : 0"
       inkscape:vp_z="210 : 148.5 : 1"
       inkscape:persp3d-origin="105 : 99 : 1"
       id="perspective4861" />
  </defs>
  <sodipodi:namedview
     id="base"
     pagecolor="#ffffff"
     bordercolor="#666666"
     borderopacity="1.0"
     inkscape:pageopacity="0.0"
     inkscape:pageshadow="2"
     inkscape:zoom="1.979899"
     inkscape:cx="257.32032"
     inkscape:cy="615.82515"
     inkscape:document-units="mm"
     inkscape:current-layer="layer1"
     showgrid="false"
     inkscape:window-width="1920"
     inkscape:window-height="1016"
     inkscape:window-x="105"
     inkscape:window-y="1107"
     inkscape:window-maximized="1" />
  <metadata
     id="metadata4637">
    <rdf:RDF>
      <cc:Work
         rdf:about="">
        <dc:format>image/svg+xml</dc:format>
        <dc:type
           rdf:resource="http://purl.org/dc/dcmitype/StillImage" />
        <dc:title></dc:title>
      </cc:Work>
    </rdf:RDF>
  </metadata>
  <g
     inkscape:label="Camada 1"
     inkscape:groupmode="layer"
     id="layer1">
    <rect
       style="fill:#00ff00;stroke-width:0.14818045"
       id="rect4859"
       width="8.8682098"
       height="5.524518"
       x="-108.8101"
       y="-17.369465"
       transform="matrix(-0.56326846,-0.82627395,0.84209396,-0.53933084,0,0)" />
    <rect
       style="fill:#00ff00;stroke-width:0.14818045"
       id="rect4859-2"
       width="8.8682098"
       height="5.524518"
       x="-106.90536"
       y="21.158802"
       transform="matrix(-0.34085807,-0.94011477,0.94950697,-0.31374593,0,0)" />
    <rect
       style="fill:#00ff00;stroke-width:0.14818045"
       id="rect4859-2-8"
       width="8.8682098"
       height="5.524518"
       x="-103.84365"
       y="-49.02301"
       transform="matrix(-0.71237933,-0.70179462,0.72194385,-0.69195165,0,0)" />
    <rect
       style="fill:#00ff00;stroke-width:0.14818045"
       id="rect4859-2-9"
       width="8.8682098"
       height="5.524518"
       x="-96.589607"
       y="56.511509"
       transform="matrix(-0.11317958,-0.99357455,0.99641267,-0.08462741,0,0)" />
    <rect
       style="fill:#00ff00;stroke-width:0.14818045"
       id="rect4859-2-7"
       width="8.8682098"
       height="5.524518"
       x="18.459484"
       y="149.6283"
       transform="matrix(0.76450244,-0.64462084,0.62242197,0.78268186,0,0)" />
    <rect
       style="fill:#00ff00;stroke-width:0.14818045"
       id="rect4859-2-3"
       width="8.8682098"
       height="5.524518"
       x="-78.41893"
       y="88.512054"
       transform="matrix(0.11834478,-0.99297256,0.98916851,0.14678438,0,0)" />
    <rect
       style="fill:#00ff00;stroke-width:0.14818045"
       id="rect4859-2-9-6"
       width="8.8682098"
       height="5.524518"
       x="-48.981316"
       y="117.8856"
       transform="matrix(0.38032137,-0.9248544,0.9135623,0.40669882,0,0)" />
    <rect
       style="fill:#00ff00;stroke-width:0.14818045"
       id="rect4859-2-3-1"
       width="8.8682098"
       height="5.524518"
       x="-17.963112"
       y="137.65805"
       transform="matrix(0.58444144,-0.81143589,0.79433429,0.6074809,0,0)" />
    <rect
       style="fill:#00ff00;stroke-width:0.14818045"
       id="rect4859-2-3-1-2"
       width="8.8682098"
       height="5.524518"
       x="58.596107"
       y="151.68639"
       transform="matrix(0.9050921,-0.42521559,0.39907351,0.91691893,0,0)" />
    <rect
       style="fill:#00ff00;stroke-width:0.14818045"
       id="rect4859-2-3-1-2-9"
       width="8.8682098"
       height="5.524518"
       x="89.095467"
       y="147.57541"
       transform="matrix(0.97189545,-0.2354129,0.20743236,0.97824936,0,0)" />
    <rect
       style="fill:#00ff00;stroke-width:0.14818045"
       id="rect4859-2-3-1-2-9-3"
       width="8.8682098"
       height="5.524518"
       x="78.905693"
       y="79.945618"
       transform="matrix(0.87245657,0.48869166,-0.51352122,0.85807689,0,0)" />
    <rect
       style="fill:#00ff00;stroke-width:0.14818045"
       id="rect4859-2-3-1-2-9-3-1"
       width="8.8682098"
       height="5.524518"
       x="52.950081"
       y="110.93269"
       transform="matrix(0.97161853,0.23655325,-0.26433153,0.96443188,0,0)" />
    <rect
       style="fill:#00ff00;stroke-width:0.14818045"
       id="rect4859-2-3-1-2-9-3-1-9"
       width="8.8682098"
       height="5.524518"
       x="14.041326"
       y="134.49042"
       transform="matrix(0.99740389,-0.07201032,0.04336524,0.99905929,0,0)" />
    <rect
       style="fill:#00ff00;stroke-width:0.14818045"
       id="rect4859-2-3-1-2-9-3-1-4"
       width="8.8682098"
       height="5.524518"
       x="-23.421997"
       y="145.79832"
       transform="matrix(0.94495306,-0.32720593,0.29996062,0.95395159,0,0)" />
    <rect
       style="fill:#00ff00;stroke-width:0.14818045"
       id="rect4859-2-3-1-2-9-3-1-7"
       width="8.8682098"
       height="5.524518"
       x="-58.023205"
       y="148.75563"
       transform="matrix(0.84628156,-0.53273588,0.50823683,0.86121735,0,0)" />
    <rect
       style="fill:#00ff00;stroke-width:0.14818045"
       id="rect4859-2-84"
       width="8.8682098"
       height="5.524518"
       x="-98.121544"
       y="140.16118"
       transform="matrix(0.67498765,-0.73782903,0.71815996,0.69587806,0,0)" />
    <rect
       style="fill:#00ff00;stroke-width:0.14818045"
       id="rect4859-2-84-5"
       width="8.8682098"
       height="5.524518"
       x="-129.59956"
       y="125.97957"
       transform="matrix(0.48998796,-0.8717292,0.85731265,0.5147961,0,0)" />
    <rect
       style="fill:#00ff00;stroke-width:0.14818045"
       id="rect4859-2-84-0"
       width="8.8682098"
       height="5.524518"
       x="-161.86987"
       y="98.957527"
       transform="matrix(0.23913441,-0.97098647,0.96372603,0.2668935,0,0)" />
    <rect
       style="fill:#00ff00;stroke-width:0.14818045"
       id="rect4859-2-84-0-3"
       width="8.8682098"
       height="5.524518"
       x="-184.9426"
       y="67.401886"
       transform="matrix(-0.01130097,-0.99993614,0.99984875,0.01739176,0,0)" />
    <rect
       style="fill:#00ff00;stroke-width:0.14818045"
       id="rect4859-2-84-0-6"
       width="8.8682098"
       height="5.524518"
       x="-205.60873"
       y="-3.3907764"
       transform="matrix(-0.48141651,-0.87649195,0.88994295,-0.45607186,0,0)" />
    <rect
       style="fill:#00ff00;stroke-width:0.14818045"
       id="rect4859-2-84-0-1"
       width="8.8682098"
       height="5.524518"
       x="-196.4323"
       y="45.877655"
       transform="matrix(-0.18947918,-0.98188474,0.9869167,-0.16123099,0,0)" />
    <rect
       style="fill:#00ff00;stroke-width:0.14818045"
       id="rect4859-2-84-0-6-0"
       width="8.8682098"
       height="5.524518"
       x="-203.80827"
       y="-30.516253"
       transform="matrix(-0.6421036,-0.76661788,0.78472421,-0.61984508,0,0)" />
    <rect
       style="fill:#00ff00;stroke-width:0.14818045"
       id="rect4859-2-84-0-6-6"
       width="8.8682098"
       height="5.524518"
       x="-188.84732"
       y="-78.769333"
       transform="matrix(-0.84885079,-0.52863252,0.55276837,-0.83333494,0,0)" />
    <rect
       style="fill:#00ff00;stroke-width:0.14818045"
       id="rect4859-2-84-0-6-3"
       width="8.8682098"
       height="5.524518"
       x="-164.19576"
       y="-113.66069"
       transform="matrix(-0.96183469,-0.27363118,0.3011135,-0.95358831,0,0)" />
    <rect
       style="fill:#00ff00;stroke-width:0.14818045"
       id="rect4859-2-84-0-6-2"
       width="8.8682098"
       height="5.524518"
       x="-136.967"
       y="-134.69649"
       transform="matrix(-0.99907074,-0.04310053,0.07174605,-0.99742293,0,0)" />
  </g>
</svg>
